<svg xmlns="http://www.w3.org/2000/svg" version="1.1" xmlns:xlink="http://www.w3.org/1999/xlink" xmlns:svgjs="http://svgjs.dev/svgjs" width="1500" height="1500" viewBox="0 0 1500 1500"><rect width="1500" height="1500" fill="#e08925"></rect><g transform="matrix(0.6666666666666666,0,0,0.6666666666666666,249.39393939393938,438.5856950067477)"><svg viewBox="0 0 396 247" data-background-color="#e08925" preserveAspectRatio="xMidYMid meet" height="935" width="1500" xmlns="http://www.w3.org/2000/svg" xmlns:xlink="http://www.w3.org/1999/xlink"><g id="tight-bounds" transform="matrix(1,0,0,1,0.2400000000000091,-0.09999999999999432)"><svg viewBox="0 0 395.52 247.2" height="247.2" width="395.52"><rect width="395.52" height="247.2" fill="url(#10d83cdf-6c27-4c00-851d-aa1e962f7511)" mask="url(#e2408b21-fefd-4ab6-84a9-dffa8aabdcd8)" data-fill-palette-color="tertiary"></rect><g><svg></svg></g><g><svg viewBox="0 0 395.52 247.2" height="247.2" width="395.52"><g transform="matrix(1,0,0,1,39.55199999999999,72.58658761174135)"><svg viewBox="0 0 316.416 102.02682477651729" height="102.02682477651729" width="316.416"><g><svg viewBox="0 0 316.416 102.02682477651729" height="102.02682477651729" width="316.416"><g transform="matrix(1,0,0,1,0,63.05667082509751)"><svg viewBox="0 0 316.416 38.970153951419775" height="38.970153951419775" width="316.416"><g id="textblocktransform"><svg viewBox="0 0 316.416 38.970153951419775" height="38.970153951419775" width="316.416" id="textblock"><g><svg viewBox="0 0 316.416 38.970153951419775" height="38.970153951419775" width="316.416"><g transform="matrix(1,0,0,1,0,0)"><svg width="316.416" viewBox="2.27 -42.19 356.79 43.949999999999996" height="38.970153951419775" data-palette-color="#001f3f"><path d="M11.06-40.43L11.06 0 9.3 0 9.3-40.43 11.06-40.43ZM7.54-40.43L7.54 0 5.79 0 5.79-40.43 7.54-40.43ZM4.03-40.43L4.03 0 2.27 0 2.27-40.43 4.03-40.43ZM14.58-15.82L14.58-8.79 33.28-8.79 33.28-7.03 14.58-7.03 14.58-5.27 33.28-5.27 33.28-3.52 14.58-3.52 14.58-1.76 33.28-1.76 33.28 0 12.82 0 12.82-40.43 33.28-40.43 33.28-38.67 14.58-38.67 14.58-36.91 33.28-36.91 33.28-35.16 14.58-35.16 14.58-33.4 33.28-33.4 33.28-31.64 14.58-31.64 14.58-24.61 24.17-24.61 24.17-22.85 14.58-22.85 14.58-21.09 24.17-21.09 24.17-19.34 14.58-19.34 14.58-17.58 24.17-17.58 24.17-15.82 14.58-15.82ZM68.11-26.61L68.11-26.61 66.67-25.66Q65.35-27.61 63.24-28.75 61.13-29.88 58.66-29.88L58.66-29.88Q54.66-29.88 51.83-27.05 49-24.22 49-20.21 49-16.21 51.83-13.38 54.66-10.55 58.66-10.55L58.66-10.55Q61.13-10.55 63.24-11.69 65.35-12.84 66.67-14.79L66.67-14.79 68.09-13.77Q66.53-11.47 64.04-10.13 61.55-8.79 58.66-8.79L58.66-8.79Q56.35-8.79 54.23-9.69 52.12-10.6 50.58-12.13 49.05-13.67 48.14-15.78 47.24-17.9 47.24-20.21 47.24-22.53 48.14-24.65 49.05-26.76 50.58-28.3 52.12-29.83 54.23-30.74 56.35-31.64 58.66-31.64L58.66-31.64Q61.57-31.64 64.06-30.29 66.55-28.93 68.11-26.61ZM71.02-28.61L71.02-28.61 69.55-27.66Q67.75-30.3 64.88-31.85 62.01-33.4 58.66-33.4L58.66-33.4Q55.08-33.4 52.05-31.63 49.02-29.86 47.25-26.83 45.48-23.8 45.48-20.21 45.48-16.63 47.25-13.6 49.02-10.57 52.05-8.8 55.08-7.03 58.66-7.03L58.66-7.03Q62.01-7.03 64.89-8.59 67.77-10.16 69.58-12.82L69.58-12.82 71.02-11.82Q68.97-8.79 65.71-7.03 62.45-5.27 58.66-5.27L58.66-5.27Q54.61-5.27 51.17-7.28 47.73-9.28 45.73-12.72 43.72-16.16 43.72-20.21 43.72-24.27 45.73-27.71 47.73-31.15 51.17-33.15 54.61-35.16 58.66-35.16L58.66-35.16Q62.45-35.16 65.71-33.4 68.97-31.64 71.02-28.61ZM73.95-30.57L73.95-30.57 72.48-29.61Q70.19-32.98 66.54-34.95 62.89-36.91 58.66-36.91L58.66-36.91Q55.27-36.91 52.17-35.6 49.07-34.28 46.84-32.04 44.6-29.81 43.28-26.71 41.97-23.61 41.97-20.21 41.97-16.82 43.28-13.72 44.6-10.62 46.84-8.39 49.07-6.15 52.17-4.83 55.27-3.52 58.66-3.52L58.66-3.52Q62.91-3.52 66.55-5.49 70.19-7.47 72.48-10.84L72.48-10.84 73.9-9.79Q71.36-6.08 67.34-3.92 63.33-1.76 58.66-1.76L58.66-1.76Q53.66-1.76 49.41-4.24 45.16-6.71 42.69-10.96 40.21-15.21 40.21-20.21 40.21-25.22 42.69-29.47 45.16-33.72 49.41-36.19 53.66-38.67 58.66-38.67L58.66-38.67Q63.35-38.67 67.38-36.49 71.41-34.3 73.95-30.57ZM76.83-32.57L76.83-32.57 75.36-31.62Q72.58-35.69 68.17-38.06 63.77-40.43 58.66-40.43L58.66-40.43Q54.56-40.43 50.82-38.83 47.07-37.23 44.36-34.52 41.65-31.81 40.05-28.06 38.45-24.32 38.45-20.21 38.45-16.11 40.05-12.37 41.65-8.62 44.36-5.91 47.07-3.2 50.82-1.6 54.56 0 58.66 0L58.66 0Q63.77 0 68.19-2.39 72.6-4.79 75.39-8.86L75.39-8.86 76.8-7.79Q73.78-3.39 68.99-0.82 64.21 1.76 58.66 1.76L58.66 1.76Q54.2 1.76 50.13 0.01 46.07-1.73 43.12-4.68 40.18-7.62 38.44-11.68 36.69-15.75 36.69-20.21 36.69-24.68 38.44-28.75 40.18-32.81 43.12-35.75 46.07-38.7 50.13-40.44 54.2-42.19 58.66-42.19L58.66-42.19Q64.23-42.19 69.02-39.6 73.8-37.01 76.83-32.57ZM118.87 0L118.87-40.43 120.62-40.43 120.62 0 118.87 0ZM80.2 0L80.2-40.43 81.95-40.43 81.95 0 80.2 0ZM115.35 0L115.35-40.43 117.11-40.43 117.11 0 115.35 0ZM111.84 0L111.84-40.43 113.59-40.43 113.59 0 111.84 0ZM108.32-24.63L108.32-40.43 110.08-40.43 110.08 0 108.32 0 108.32-15.84 92.5-15.84 92.5 0 90.74 0 90.74-40.43 92.5-40.43 92.5-24.63 108.32-24.63ZM87.23 0L87.23-40.43 88.98-40.43 88.98 0 87.23 0ZM83.71 0L83.71-40.43 85.47-40.43 85.47 0 83.71 0ZM92.5-17.6L108.32-17.6 108.32-19.36 92.5-19.36 92.5-17.6ZM92.5-21.12L108.32-21.12 108.32-22.88 92.5-22.88 92.5-21.12ZM139.49-27.05Q136.66-24.22 136.66-20.21 136.66-16.21 139.49-13.38 142.33-10.55 146.33-10.55 150.33-10.55 153.17-13.38 156-16.21 156-20.21 156-24.22 153.17-27.05 150.33-29.88 146.33-29.88 142.33-29.88 139.49-27.05ZM135.81-15.78Q134.9-17.9 134.9-20.21 134.9-22.53 135.81-24.65 136.71-26.76 138.25-28.3 139.79-29.83 141.9-30.74 144.01-31.64 146.33-31.64 148.65-31.64 150.76-30.74 152.87-29.83 154.41-28.3 155.95-26.76 156.85-24.65 157.76-22.53 157.76-20.21 157.76-17.9 156.85-15.78 155.95-13.67 154.41-12.13 152.87-10.6 150.76-9.69 148.65-8.79 146.33-8.79 144.01-8.79 141.9-9.69 139.79-10.6 138.25-12.13 136.71-13.67 135.81-15.78ZM134.92-26.83Q133.15-23.8 133.15-20.21 133.15-16.63 134.92-13.6 136.69-10.57 139.71-8.8 142.74-7.03 146.33-7.03 149.92-7.03 152.95-8.8 155.97-10.57 157.74-13.6 159.51-16.63 159.51-20.21 159.51-23.8 157.74-26.83 155.97-29.86 152.95-31.63 149.92-33.4 146.33-33.4 142.74-33.4 139.71-31.63 136.69-29.86 134.92-26.83ZM133.39-12.72Q131.39-16.16 131.39-20.21 131.39-24.27 133.39-27.71 135.39-31.15 138.84-33.15 142.28-35.16 146.33-35.16 150.38-35.16 153.83-33.15 157.27-31.15 159.27-27.71 161.27-24.27 161.27-20.21 161.27-16.16 159.27-12.72 157.27-9.28 153.83-7.28 150.38-5.27 146.33-5.27 142.28-5.27 138.84-7.28 135.39-9.28 133.39-12.72ZM130.95-26.71Q129.63-23.61 129.63-20.21 129.63-16.82 130.95-13.72 132.27-10.62 134.5-8.39 136.74-6.15 139.84-4.83 142.94-3.52 146.33-3.52 149.72-3.52 152.82-4.83 155.93-6.15 158.16-8.39 160.39-10.62 161.71-13.72 163.03-16.82 163.03-20.21 163.03-23.61 161.71-26.71 160.39-29.81 158.16-32.04 155.93-34.28 152.82-35.6 149.72-36.91 146.33-36.91 142.94-36.91 139.84-35.6 136.74-34.28 134.5-32.04 132.27-29.81 130.95-26.71ZM130.35-10.96Q127.87-15.21 127.87-20.21 127.87-25.22 130.35-29.47 132.83-33.72 137.08-36.19 141.33-38.67 146.33-38.67 151.34-38.67 155.58-36.19 159.83-33.72 162.31-29.47 164.79-25.22 164.79-20.21 164.79-15.21 162.31-10.96 159.83-6.71 155.58-4.24 151.34-1.76 146.33-1.76 141.33-1.76 137.08-4.24 132.83-6.71 130.35-10.96ZM127.71-28.06Q126.12-24.32 126.12-20.21 126.12-16.11 127.71-12.37 129.31-8.62 132.02-5.91 134.73-3.2 138.48-1.6 142.23 0 146.33 0 150.43 0 154.18-1.6 157.93-3.2 160.64-5.91 163.35-8.62 164.95-12.37 166.55-16.11 166.55-20.21 166.55-24.32 164.95-28.06 163.35-31.81 160.64-34.52 157.93-37.23 154.18-38.83 150.43-40.43 146.33-40.43 142.23-40.43 138.48-38.83 134.73-37.23 132.02-34.52 129.31-31.81 127.71-28.06ZM126.1-11.68Q124.36-15.75 124.36-20.21 124.36-24.68 126.1-28.75 127.85-32.81 130.79-35.75 133.73-38.7 137.8-40.44 141.86-42.19 146.33-42.19 150.8-42.19 154.86-40.44 158.93-38.7 161.87-35.75 164.81-32.81 166.56-28.75 168.3-24.68 168.3-20.21 168.3-15.75 166.56-11.68 164.81-7.62 161.87-4.68 158.93-1.73 154.86 0.01 150.8 1.76 146.33 1.76 141.86 1.76 137.8 0.01 133.73-1.73 130.79-4.68 127.85-7.62 126.1-11.68ZM184.02 0L168.03-40.43 169.94-40.43 184.98-2.37 200.01-40.43 201.89-40.43 185.93 0 184.02 0ZM173.7-40.43L186.2-8.79 185.2-6.54 171.82-40.43 173.7-40.43ZM177.5-40.43L188.08-13.6 187.15-11.18 175.6-40.43 177.5-40.43ZM181.26-40.43L189.93-18.48 189-16.02 179.38-40.43 181.26-40.43ZM195.38 0L211.34-40.43 213.25-40.43 197.26 0 195.38 0ZM191.59 0L207.58-40.43 209.46-40.43 193.47 0 191.59 0ZM187.81 0L203.77-40.43 205.68-40.43 189.69 0 187.81 0ZM225.23-40.43L225.23 0 223.47 0 223.47-40.43 225.23-40.43ZM221.72-40.43L221.72 0 219.96 0 219.96-40.43 221.72-40.43ZM218.2-40.43L218.2 0 216.44 0 216.44-40.43 218.2-40.43ZM228.75-15.82L228.75-8.79 247.45-8.79 247.45-7.03 228.75-7.03 228.75-5.27 247.45-5.27 247.45-3.52 228.75-3.52 228.75-1.76 247.45-1.76 247.45 0 226.99 0 226.99-40.43 247.45-40.43 247.45-38.67 228.75-38.67 228.75-36.91 247.45-36.91 247.45-35.16 228.75-35.16 228.75-33.4 247.45-33.4 247.45-31.64 228.75-31.64 228.75-24.61 238.34-24.61 238.34-22.85 228.75-22.85 228.75-21.09 238.34-21.09 238.34-19.34 228.75-19.34 228.75-17.58 238.34-17.58 238.34-15.82 228.75-15.82ZM265.05-18.36L265.05-20.12 275.64-20.12Q278.06-20.12 279.73-21.68 281.41-23.24 281.41-26.12L281.41-26.12Q281.41-28.25 279.65-29.94 277.89-31.64 275.64-31.64L275.64-31.64 260.56-31.64 260.56 0 258.8 0 258.8-33.4 275.64-33.4Q278.62-33.4 280.89-31.19 283.16-28.98 283.16-26.12L283.16-26.12Q283.16-22.61 280.97-20.48 278.77-18.36 275.64-18.36L275.64-18.36 265.05-18.36ZM265.05-14.84L265.05-16.6 275.64-16.6Q279.45-16.6 282.19-19.27 284.92-21.95 284.92-26.12L284.92-26.12Q284.92-29.71 282.13-32.43 279.33-35.16 275.64-35.16L275.64-35.16 257.04-35.16 257.04 0 255.28 0 255.28-36.91 275.64-36.91Q278.55-36.91 281.1-35.42 283.65-33.94 285.17-31.43 286.68-28.93 286.68-26.12L286.68-26.12Q286.68-21.31 283.42-18.08 280.16-14.84 275.64-14.84L275.64-14.84 265.05-14.84ZM265.05-11.33L265.05-13.09 275.64-13.09Q279.06-13.09 281.99-14.77 284.92-16.46 286.68-19.47 288.44-22.49 288.44-26.12L288.44-26.12Q288.44-29.42 286.69-32.31 284.95-35.21 281.99-36.94 279.04-38.67 275.64-38.67L275.64-38.67 253.53-38.67 253.53 0 251.77 0 251.77-40.43 275.64-40.43Q279.48-40.43 282.85-38.46 286.22-36.5 288.21-33.19 290.19-29.88 290.19-26.12L290.19-26.12Q290.19-21.78 288.33-18.48 286.46-15.19 283.26-13.33L283.26-13.33 287.8 0 285.95 0 281.6-12.5Q280.62-12.11 280.11-11.96L280.11-11.96 284.19 0 282.33 0 278.35-11.55Q278.13-11.5 276.79-11.38L276.79-11.38 280.58 0 278.72 0 274.99-11.33 273.4-11.33 276.96 0 275.11 0 271.52-11.33 265.05-11.33ZM264.07-28.13L264.07 0 262.31 0 262.31-29.88 275.64-29.88Q277.28-29.88 278.46-28.77 279.65-27.66 279.65-26.12L279.65-26.12Q279.65-21.88 275.64-21.88L275.64-21.88 265.05-21.88 265.05-23.63 275.64-23.63Q276.69-23.63 277.29-24.18 277.89-24.73 277.89-26.12L277.89-26.12Q277.89-26.98 277.24-27.55 276.6-28.13 275.64-28.13L275.64-28.13 264.07-28.13ZM310.29-24.61L310.29-24.61 307.33-24.61Q305.45-24.61 304.62-25.57 303.79-26.54 303.79-28.13L303.79-28.13Q303.79-31.64 309.04-31.64L309.04-31.64Q313.97-31.64 316.46-30.18L316.46-30.18 315.05-29.1Q313.34-29.88 309.04-29.88L309.04-29.88Q306.94-29.88 306.22-29.42 305.5-28.96 305.5-28.13 305.5-27.29 305.89-26.83 306.28-26.37 307.33-26.37L307.33-26.37 310.36-26.37Q313.65-26.37 316.3-25.24 318.95-24.12 320.66-22.18 322.37-20.24 323.27-17.71 324.18-15.19 324.18-12.3L324.18-12.3Q324.18-9.96 323.52-7.86 322.86-5.76 321.53-4 320.2-2.25 318.33-0.96 316.46 0.32 313.89 1.04 311.31 1.76 308.31 1.76L308.31 1.76Q303.6 1.76 299.48 0.33 295.37-1.1 292.63-3.66L292.63-3.66 294.05-4.71Q296.54-2.47 300.29-1.23 304.04 0 308.31 0L308.31 0Q311.65 0 314.35-0.96 317.05-1.93 318.79-3.61 320.54-5.3 321.48-7.52 322.42-9.74 322.42-12.3L322.42-12.3Q322.42-15.7 321.05-18.44 319.68-21.19 316.89-22.9 314.09-24.61 310.29-24.61ZM307.33-22.85L307.33-22.85 310.11-22.85Q315.07-22.85 317.87-19.82 320.66-16.8 320.66-12.3L320.66-12.3Q320.66-7.74 317.41-4.75 314.17-1.76 308.31-1.76L308.31-1.76Q304.4-1.76 301.01-2.83 297.61-3.91 295.37-5.86L295.37-5.86 296.74-6.96Q298.74-5.32 301.78-4.42 304.82-3.52 308.31-3.52L308.31-3.52Q313.46-3.52 316.18-5.98 318.9-8.45 318.9-12.3L318.9-12.3Q318.9-16.11 316.62-18.6 314.34-21.09 310.09-21.09L310.09-21.09 307.33-21.09Q303.77-21.09 301.98-23.05 300.2-25 300.2-28.13 300.2-31.25 302.41-33.2 304.62-35.16 309.04-35.16L309.04-35.16Q312.14-35.16 314.8-34.44 317.46-33.72 319.2-32.37L319.2-32.37 317.8-31.3Q314.75-33.4 309.04-33.4L309.04-33.4Q305.35-33.4 303.66-31.95 301.96-30.49 301.96-28.13L301.96-28.13Q301.96-25.73 303.22-24.29 304.47-22.85 307.33-22.85ZM307.33-19.34L307.33-19.34 310.02-19.34Q313.58-19.34 315.36-17.36 317.15-15.38 317.15-12.3L317.15-12.3Q317.15-9.18 314.94-7.23 312.73-5.27 308.31-5.27L308.31-5.27Q305.21-5.27 302.53-5.99 299.86-6.71 298.13-8.06L298.13-8.06 299.52-9.13Q302.57-7.03 308.31-7.03L308.31-7.03Q311.99-7.03 313.69-8.48 315.39-9.94 315.39-12.3 315.39-14.67 314.12-16.13 312.85-17.58 309.99-17.58L309.99-17.58 307.33-17.58Q302.33-17.58 299.51-20.57 296.69-23.56 296.69-28.13 296.69-32.69 299.93-35.68 303.18-38.67 309.04-38.67L309.04-38.67Q312.95-38.67 316.33-37.6 319.71-36.52 321.96-34.57L321.96-34.57 320.59-33.47Q318.59-35.11 315.56-36.01 312.53-36.91 309.04-36.91L309.04-36.91Q303.89-36.91 301.17-34.45 298.44-31.98 298.44-28.13L298.44-28.13Q298.44-24.29 300.74-21.81 303.03-19.34 307.33-19.34ZM307.33-15.82L307.33-15.82 310.02-15.82Q311.9-15.82 312.73-14.84 313.56-13.87 313.56-12.3L313.56-12.3Q313.56-8.79 308.31-8.79L308.31-8.79Q303.35-8.79 300.86-10.25L300.86-10.25 302.28-11.33Q303.99-10.55 308.31-10.55L308.31-10.55Q310.41-10.55 311.13-11.01 311.85-11.47 311.85-12.3L311.85-12.3Q311.85-13.11 311.44-13.59 311.04-14.06 309.97-14.06L309.97-14.06 307.33-14.06Q303.96-14.06 301.24-15.16 298.52-16.26 296.77-18.19 295.03-20.12 294.1-22.66 293.17-25.2 293.17-28.13L293.17-28.13Q293.17-30.47 293.83-32.57 294.49-34.67 295.82-36.43 297.15-38.18 299.02-39.47 300.89-40.75 303.46-41.47 306.04-42.19 309.04-42.19L309.04-42.19Q313.75-42.19 317.85-40.76 321.96-39.33 324.69-36.77L324.69-36.77 323.27-35.72Q320.78-37.96 317.05-39.2 313.31-40.43 309.04-40.43L309.04-40.43Q305.7-40.43 303-39.47 300.3-38.5 298.55-36.82 296.81-35.13 295.87-32.91 294.93-30.69 294.93-28.13L294.93-28.13Q294.93-24.68 296.32-21.92 297.71-19.17 300.57-17.49 303.42-15.82 307.33-15.82ZM336.85-40.43L336.85 0 335.09 0 335.09-40.43 336.85-40.43ZM333.33-40.43L333.33 0 331.57 0 331.57-40.43 333.33-40.43ZM329.81-40.43L329.81 0 328.06 0 328.06-40.43 329.81-40.43ZM340.36-15.82L340.36-8.79 359.06-8.79 359.06-7.03 340.36-7.03 340.36-5.27 359.06-5.27 359.06-3.52 340.36-3.52 340.36-1.76 359.06-1.76 359.06 0 338.6 0 338.6-40.43 359.06-40.43 359.06-38.67 340.36-38.67 340.36-36.91 359.06-36.91 359.06-35.16 340.36-35.16 340.36-33.4 359.06-33.4 359.06-31.64 340.36-31.64 340.36-24.61 349.96-24.61 349.96-22.85 340.36-22.85 340.36-21.09 349.96-21.09 349.96-19.34 340.36-19.34 340.36-17.58 349.96-17.58 349.96-15.82 340.36-15.82Z" opacity="1" transform="matrix(1,0,0,1,0,0)" fill="#001f3f" class="wordmark-text-0" data-fill-palette-color="primary" id="text-0"></path></svg></g></svg></g></svg></g></svg></g><g transform="matrix(1,0,0,1,130.46688138304765,0)"><svg viewBox="0 0 55.48223723390468 53.856752760862136" height="53.856752760862136" width="55.48223723390468"><g><svg xmlns="http://www.w3.org/2000/svg" xmlns:xlink="http://www.w3.org/1999/xlink" version="1.1" x="0" y="0" viewBox="16.081 16.646 68.914 66.895" enable-background="new 0 0 100 100" xml:space="preserve" height="53.856752760862136" width="55.48223723390468" class="icon-icon-0" data-fill-palette-color="accent" id="icon-0"></svg></g></svg></g><g></g></svg></g></svg></g><g><path d="M0 247.2v-247.2h395.52v247.2zM392.006 243.686v-240.172h-388.492v240.172z" fill="url(#10d83cdf-6c27-4c00-851d-aa1e962f7511)" fill-rule="nonzero" stroke="none" stroke-width="1" stroke-linecap="butt" stroke-linejoin="miter" stroke-miterlimit="10" stroke-dasharray="" stroke-dashoffset="0" font-family="none" font-weight="none" font-size="none" text-anchor="none" style="mix-blend-mode: normal" data-fill-palette-color="tertiary"></path></g></svg></g><defs></defs><mask id="4a832ae3-812a-4a76-96d8-2f3e4517f6dc"><g id="SvgjsG1556"><svg viewBox="0 0 395.52 247.2" height="247.2" width="395.52"><g><svg></svg></g><g><svg viewBox="0 0 395.52 247.2" height="247.2" width="395.52"><g transform="matrix(1,0,0,1,39.55199999999999,72.58658761174135)"><svg viewBox="0 0 316.416 102.02682477651729" height="102.02682477651729" width="316.416"><g><svg viewBox="0 0 316.416 102.02682477651729" height="102.02682477651729" width="316.416"><g transform="matrix(1,0,0,1,0,63.05667082509751)"><svg viewBox="0 0 316.416 38.970153951419775" height="38.970153951419775" width="316.416"><g id="SvgjsG1555"><svg viewBox="0 0 316.416 38.970153951419775" height="38.970153951419775" width="316.416" id="SvgjsSvg1554"><g><svg viewBox="0 0 316.416 38.970153951419775" height="38.970153951419775" width="316.416"><g transform="matrix(1,0,0,1,0,0)"><svg width="316.416" viewBox="2.27 -42.19 356.79 43.949999999999996" height="38.970153951419775" data-palette-color="#001f3f"><path d="M11.06-40.43L11.06 0 9.3 0 9.3-40.43 11.06-40.43ZM7.54-40.43L7.54 0 5.79 0 5.79-40.43 7.54-40.43ZM4.03-40.43L4.03 0 2.27 0 2.27-40.43 4.03-40.43ZM14.58-15.82L14.58-8.79 33.28-8.79 33.28-7.03 14.58-7.03 14.58-5.27 33.28-5.27 33.28-3.52 14.58-3.52 14.58-1.76 33.28-1.76 33.28 0 12.82 0 12.82-40.43 33.28-40.43 33.28-38.67 14.58-38.67 14.58-36.91 33.28-36.91 33.28-35.16 14.58-35.16 14.58-33.4 33.28-33.4 33.28-31.64 14.58-31.64 14.58-24.61 24.17-24.61 24.17-22.85 14.58-22.85 14.58-21.09 24.17-21.09 24.17-19.34 14.58-19.34 14.58-17.58 24.17-17.58 24.17-15.82 14.58-15.82ZM68.11-26.61L68.11-26.61 66.67-25.66Q65.35-27.61 63.24-28.75 61.13-29.88 58.66-29.88L58.66-29.88Q54.66-29.88 51.83-27.05 49-24.22 49-20.21 49-16.21 51.83-13.38 54.66-10.55 58.66-10.55L58.66-10.55Q61.13-10.55 63.24-11.69 65.35-12.84 66.67-14.79L66.67-14.79 68.09-13.77Q66.53-11.47 64.04-10.13 61.55-8.79 58.66-8.79L58.66-8.79Q56.35-8.79 54.23-9.69 52.12-10.6 50.58-12.13 49.05-13.67 48.14-15.78 47.24-17.9 47.24-20.21 47.24-22.53 48.14-24.65 49.05-26.76 50.58-28.3 52.12-29.83 54.23-30.74 56.35-31.64 58.66-31.64L58.66-31.64Q61.57-31.64 64.06-30.29 66.55-28.93 68.11-26.61ZM71.02-28.61L71.02-28.61 69.55-27.66Q67.75-30.3 64.88-31.85 62.01-33.4 58.66-33.4L58.66-33.4Q55.08-33.4 52.05-31.63 49.02-29.86 47.25-26.83 45.48-23.8 45.48-20.21 45.48-16.63 47.25-13.6 49.02-10.57 52.05-8.8 55.08-7.03 58.66-7.03L58.66-7.03Q62.01-7.03 64.89-8.59 67.77-10.16 69.58-12.82L69.58-12.82 71.02-11.82Q68.97-8.79 65.71-7.03 62.45-5.27 58.66-5.27L58.66-5.27Q54.61-5.27 51.17-7.28 47.73-9.28 45.73-12.72 43.72-16.16 43.72-20.21 43.72-24.27 45.73-27.71 47.73-31.15 51.17-33.15 54.61-35.16 58.66-35.16L58.66-35.16Q62.45-35.16 65.71-33.4 68.97-31.64 71.02-28.61ZM73.95-30.57L73.95-30.57 72.48-29.61Q70.19-32.98 66.54-34.95 62.89-36.91 58.66-36.91L58.66-36.91Q55.27-36.91 52.17-35.6 49.07-34.28 46.84-32.04 44.6-29.81 43.28-26.71 41.97-23.61 41.97-20.21 41.97-16.82 43.28-13.72 44.6-10.62 46.84-8.39 49.07-6.15 52.17-4.83 55.27-3.52 58.66-3.52L58.66-3.52Q62.91-3.52 66.55-5.49 70.19-7.47 72.48-10.84L72.48-10.84 73.9-9.79Q71.36-6.08 67.34-3.92 63.33-1.76 58.66-1.76L58.66-1.76Q53.66-1.76 49.41-4.24 45.16-6.71 42.69-10.96 40.21-15.21 40.21-20.21 40.21-25.22 42.69-29.47 45.16-33.72 49.41-36.19 53.66-38.67 58.66-38.67L58.66-38.67Q63.35-38.67 67.38-36.49 71.41-34.3 73.95-30.57ZM76.83-32.57L76.83-32.57 75.36-31.62Q72.58-35.69 68.17-38.06 63.77-40.43 58.66-40.43L58.66-40.43Q54.56-40.43 50.82-38.83 47.07-37.23 44.36-34.52 41.65-31.81 40.05-28.06 38.45-24.32 38.45-20.21 38.45-16.11 40.05-12.37 41.65-8.62 44.36-5.91 47.07-3.2 50.82-1.6 54.56 0 58.66 0L58.66 0Q63.77 0 68.19-2.39 72.6-4.79 75.39-8.86L75.39-8.86 76.8-7.79Q73.78-3.39 68.99-0.82 64.21 1.76 58.66 1.76L58.66 1.76Q54.2 1.76 50.13 0.01 46.07-1.73 43.12-4.68 40.18-7.62 38.44-11.68 36.69-15.75 36.69-20.21 36.69-24.68 38.44-28.75 40.18-32.81 43.12-35.75 46.07-38.7 50.13-40.44 54.2-42.19 58.66-42.19L58.66-42.19Q64.23-42.19 69.02-39.6 73.8-37.01 76.83-32.57ZM118.87 0L118.87-40.43 120.62-40.43 120.62 0 118.87 0ZM80.2 0L80.2-40.43 81.95-40.43 81.95 0 80.2 0ZM115.35 0L115.35-40.43 117.11-40.43 117.11 0 115.35 0ZM111.84 0L111.84-40.43 113.59-40.43 113.59 0 111.84 0ZM108.32-24.63L108.32-40.43 110.08-40.43 110.08 0 108.32 0 108.32-15.84 92.5-15.84 92.5 0 90.74 0 90.74-40.43 92.5-40.43 92.5-24.63 108.32-24.63ZM87.23 0L87.23-40.43 88.98-40.43 88.98 0 87.23 0ZM83.71 0L83.71-40.43 85.47-40.43 85.47 0 83.71 0ZM92.5-17.6L108.32-17.6 108.32-19.36 92.5-19.36 92.5-17.6ZM92.5-21.12L108.32-21.12 108.32-22.88 92.5-22.88 92.5-21.12ZM139.49-27.05Q136.66-24.22 136.66-20.21 136.66-16.21 139.49-13.38 142.33-10.55 146.33-10.55 150.33-10.55 153.17-13.38 156-16.21 156-20.21 156-24.22 153.17-27.05 150.33-29.88 146.33-29.88 142.33-29.88 139.49-27.05ZM135.81-15.78Q134.9-17.9 134.9-20.21 134.9-22.53 135.81-24.65 136.71-26.76 138.25-28.3 139.79-29.83 141.9-30.74 144.01-31.64 146.33-31.64 148.65-31.64 150.76-30.74 152.87-29.83 154.41-28.3 155.95-26.76 156.85-24.65 157.76-22.53 157.76-20.21 157.76-17.9 156.85-15.78 155.95-13.67 154.41-12.13 152.87-10.6 150.76-9.69 148.65-8.79 146.33-8.79 144.01-8.79 141.9-9.69 139.79-10.6 138.25-12.13 136.71-13.67 135.81-15.78ZM134.92-26.83Q133.15-23.8 133.15-20.21 133.15-16.63 134.92-13.6 136.69-10.57 139.71-8.8 142.74-7.03 146.33-7.03 149.92-7.03 152.95-8.8 155.97-10.57 157.74-13.6 159.51-16.63 159.51-20.21 159.51-23.8 157.74-26.83 155.97-29.86 152.95-31.63 149.92-33.4 146.33-33.4 142.74-33.4 139.71-31.63 136.69-29.86 134.92-26.83ZM133.39-12.72Q131.39-16.16 131.39-20.21 131.39-24.27 133.39-27.71 135.39-31.15 138.84-33.15 142.28-35.16 146.33-35.16 150.38-35.16 153.83-33.15 157.27-31.15 159.27-27.71 161.27-24.27 161.27-20.21 161.27-16.16 159.27-12.72 157.27-9.28 153.83-7.28 150.38-5.27 146.33-5.27 142.28-5.27 138.84-7.28 135.39-9.28 133.39-12.72ZM130.95-26.71Q129.63-23.61 129.63-20.21 129.63-16.82 130.95-13.72 132.27-10.62 134.5-8.39 136.74-6.15 139.84-4.83 142.94-3.52 146.33-3.52 149.72-3.52 152.82-4.83 155.93-6.15 158.16-8.39 160.39-10.62 161.71-13.72 163.03-16.82 163.03-20.21 163.03-23.61 161.71-26.71 160.39-29.81 158.16-32.04 155.93-34.28 152.82-35.6 149.72-36.91 146.33-36.91 142.94-36.91 139.84-35.6 136.74-34.28 134.5-32.04 132.27-29.81 130.95-26.71ZM130.35-10.96Q127.87-15.21 127.87-20.21 127.87-25.22 130.35-29.47 132.83-33.72 137.08-36.19 141.33-38.67 146.33-38.67 151.34-38.67 155.58-36.19 159.83-33.72 162.31-29.47 164.79-25.22 164.79-20.21 164.79-15.21 162.31-10.96 159.83-6.71 155.58-4.24 151.34-1.76 146.33-1.76 141.33-1.76 137.08-4.24 132.83-6.71 130.35-10.96ZM127.71-28.06Q126.12-24.32 126.12-20.21 126.12-16.11 127.71-12.37 129.31-8.62 132.02-5.91 134.73-3.2 138.48-1.6 142.23 0 146.33 0 150.43 0 154.18-1.6 157.93-3.2 160.64-5.91 163.35-8.62 164.95-12.37 166.55-16.11 166.55-20.21 166.55-24.32 164.95-28.06 163.35-31.81 160.64-34.52 157.93-37.23 154.18-38.83 150.43-40.43 146.33-40.43 142.23-40.43 138.48-38.83 134.73-37.23 132.02-34.52 129.31-31.81 127.71-28.06ZM126.1-11.68Q124.36-15.75 124.36-20.21 124.36-24.68 126.1-28.75 127.85-32.81 130.79-35.75 133.73-38.7 137.8-40.44 141.86-42.19 146.33-42.19 150.8-42.19 154.86-40.44 158.93-38.7 161.87-35.75 164.81-32.81 166.56-28.75 168.3-24.68 168.3-20.21 168.3-15.75 166.56-11.68 164.81-7.62 161.87-4.68 158.93-1.73 154.86 0.01 150.8 1.76 146.33 1.76 141.86 1.76 137.8 0.01 133.73-1.73 130.79-4.68 127.85-7.62 126.1-11.68ZM184.02 0L168.03-40.43 169.94-40.43 184.98-2.37 200.01-40.43 201.89-40.43 185.93 0 184.02 0ZM173.7-40.43L186.2-8.79 185.2-6.54 171.82-40.43 173.7-40.43ZM177.5-40.43L188.08-13.6 187.15-11.18 175.6-40.43 177.5-40.43ZM181.26-40.43L189.93-18.48 189-16.02 179.38-40.43 181.26-40.43ZM195.38 0L211.34-40.43 213.25-40.43 197.26 0 195.38 0ZM191.59 0L207.58-40.43 209.46-40.43 193.47 0 191.59 0ZM187.81 0L203.77-40.43 205.68-40.43 189.69 0 187.81 0ZM225.23-40.43L225.23 0 223.47 0 223.47-40.43 225.23-40.43ZM221.72-40.43L221.72 0 219.96 0 219.96-40.43 221.72-40.43ZM218.2-40.43L218.2 0 216.44 0 216.44-40.43 218.2-40.43ZM228.75-15.82L228.75-8.79 247.45-8.79 247.45-7.03 228.75-7.03 228.75-5.27 247.45-5.27 247.45-3.52 228.75-3.52 228.75-1.76 247.45-1.76 247.45 0 226.99 0 226.99-40.43 247.45-40.43 247.45-38.67 228.75-38.67 228.75-36.91 247.45-36.91 247.45-35.16 228.75-35.16 228.75-33.4 247.45-33.4 247.45-31.64 228.75-31.64 228.75-24.61 238.34-24.61 238.34-22.85 228.75-22.85 228.75-21.09 238.34-21.09 238.34-19.34 228.75-19.34 228.75-17.58 238.34-17.58 238.34-15.82 228.75-15.82ZM265.05-18.36L265.05-20.12 275.64-20.12Q278.06-20.12 279.73-21.68 281.41-23.24 281.41-26.12L281.41-26.12Q281.41-28.25 279.65-29.94 277.89-31.64 275.64-31.64L275.64-31.64 260.56-31.64 260.56 0 258.8 0 258.8-33.4 275.64-33.4Q278.62-33.4 280.89-31.19 283.16-28.98 283.16-26.12L283.16-26.12Q283.16-22.61 280.97-20.48 278.77-18.36 275.64-18.36L275.64-18.36 265.05-18.36ZM265.05-14.84L265.05-16.6 275.64-16.6Q279.45-16.6 282.19-19.27 284.92-21.95 284.92-26.12L284.92-26.12Q284.92-29.71 282.13-32.43 279.33-35.16 275.64-35.16L275.64-35.16 257.04-35.16 257.04 0 255.28 0 255.28-36.91 275.64-36.91Q278.55-36.91 281.1-35.42 283.65-33.94 285.17-31.43 286.68-28.93 286.68-26.12L286.68-26.12Q286.68-21.31 283.42-18.08 280.16-14.84 275.64-14.84L275.64-14.84 265.05-14.84ZM265.05-11.33L265.05-13.09 275.64-13.09Q279.06-13.09 281.99-14.77 284.92-16.46 286.68-19.47 288.44-22.49 288.44-26.12L288.44-26.12Q288.44-29.42 286.69-32.31 284.95-35.21 281.99-36.94 279.04-38.67 275.64-38.67L275.64-38.67 253.53-38.67 253.53 0 251.77 0 251.77-40.43 275.64-40.43Q279.48-40.43 282.85-38.46 286.22-36.5 288.21-33.19 290.19-29.88 290.19-26.12L290.19-26.12Q290.19-21.78 288.33-18.48 286.46-15.19 283.26-13.33L283.26-13.33 287.8 0 285.95 0 281.6-12.5Q280.62-12.11 280.11-11.96L280.11-11.96 284.19 0 282.33 0 278.35-11.55Q278.13-11.5 276.79-11.38L276.79-11.38 280.58 0 278.72 0 274.99-11.33 273.4-11.33 276.96 0 275.11 0 271.52-11.33 265.05-11.33ZM264.07-28.13L264.07 0 262.31 0 262.31-29.88 275.64-29.88Q277.28-29.88 278.46-28.77 279.65-27.66 279.65-26.12L279.65-26.12Q279.65-21.88 275.64-21.88L275.64-21.88 265.05-21.88 265.05-23.63 275.64-23.63Q276.69-23.63 277.29-24.18 277.89-24.73 277.89-26.12L277.89-26.12Q277.89-26.98 277.24-27.55 276.6-28.13 275.64-28.13L275.64-28.13 264.07-28.13ZM310.29-24.61L310.29-24.61 307.33-24.61Q305.45-24.61 304.62-25.57 303.79-26.54 303.79-28.13L303.79-28.13Q303.79-31.64 309.04-31.64L309.04-31.64Q313.97-31.64 316.46-30.18L316.46-30.18 315.05-29.1Q313.34-29.88 309.04-29.88L309.04-29.88Q306.94-29.88 306.22-29.42 305.5-28.96 305.5-28.13 305.5-27.29 305.89-26.83 306.28-26.37 307.33-26.37L307.33-26.37 310.36-26.37Q313.65-26.37 316.3-25.24 318.95-24.12 320.66-22.18 322.37-20.24 323.27-17.71 324.18-15.19 324.18-12.3L324.18-12.3Q324.18-9.96 323.52-7.86 322.86-5.76 321.53-4 320.2-2.25 318.33-0.96 316.46 0.32 313.89 1.04 311.31 1.76 308.31 1.76L308.31 1.76Q303.6 1.76 299.48 0.33 295.37-1.1 292.63-3.66L292.63-3.66 294.05-4.71Q296.54-2.47 300.29-1.23 304.04 0 308.31 0L308.31 0Q311.65 0 314.35-0.96 317.05-1.93 318.79-3.61 320.54-5.3 321.48-7.52 322.42-9.74 322.42-12.3L322.42-12.3Q322.42-15.7 321.05-18.44 319.68-21.19 316.89-22.9 314.09-24.61 310.29-24.61ZM307.33-22.85L307.33-22.85 310.11-22.85Q315.07-22.85 317.87-19.82 320.66-16.8 320.66-12.3L320.66-12.3Q320.66-7.74 317.41-4.75 314.17-1.76 308.31-1.76L308.31-1.76Q304.4-1.76 301.01-2.83 297.61-3.91 295.37-5.86L295.37-5.86 296.74-6.96Q298.74-5.32 301.78-4.42 304.82-3.52 308.31-3.52L308.31-3.52Q313.46-3.52 316.18-5.98 318.9-8.45 318.9-12.3L318.9-12.3Q318.9-16.11 316.62-18.6 314.34-21.09 310.09-21.09L310.09-21.09 307.33-21.09Q303.77-21.09 301.98-23.05 300.2-25 300.2-28.13 300.2-31.25 302.41-33.2 304.62-35.16 309.04-35.16L309.04-35.16Q312.14-35.16 314.8-34.44 317.46-33.72 319.2-32.37L319.2-32.37 317.8-31.3Q314.75-33.4 309.04-33.4L309.04-33.4Q305.35-33.4 303.66-31.95 301.96-30.49 301.96-28.13L301.96-28.13Q301.96-25.73 303.22-24.29 304.47-22.85 307.33-22.85ZM307.33-19.34L307.33-19.34 310.02-19.34Q313.58-19.34 315.36-17.36 317.15-15.38 317.15-12.3L317.15-12.3Q317.15-9.18 314.94-7.23 312.73-5.27 308.31-5.27L308.31-5.27Q305.21-5.27 302.53-5.99 299.86-6.71 298.13-8.06L298.13-8.06 299.52-9.13Q302.57-7.03 308.31-7.03L308.31-7.03Q311.99-7.03 313.69-8.48 315.39-9.94 315.39-12.3 315.39-14.67 314.12-16.13 312.85-17.58 309.99-17.58L309.99-17.58 307.33-17.58Q302.33-17.58 299.51-20.57 296.69-23.56 296.69-28.13 296.69-32.69 299.93-35.68 303.18-38.67 309.04-38.67L309.04-38.67Q312.95-38.67 316.33-37.6 319.71-36.52 321.96-34.57L321.96-34.57 320.59-33.47Q318.59-35.11 315.56-36.01 312.53-36.91 309.04-36.91L309.04-36.91Q303.89-36.91 301.17-34.45 298.44-31.98 298.44-28.13L298.44-28.13Q298.44-24.29 300.74-21.81 303.03-19.34 307.33-19.34ZM307.33-15.82L307.33-15.82 310.02-15.82Q311.9-15.82 312.73-14.84 313.56-13.87 313.56-12.3L313.56-12.3Q313.56-8.79 308.31-8.79L308.31-8.79Q303.35-8.79 300.86-10.25L300.86-10.25 302.28-11.33Q303.99-10.55 308.31-10.55L308.31-10.55Q310.41-10.55 311.13-11.01 311.85-11.47 311.85-12.3L311.85-12.3Q311.85-13.11 311.44-13.59 311.04-14.06 309.97-14.06L309.97-14.06 307.33-14.06Q303.96-14.06 301.24-15.16 298.52-16.26 296.77-18.19 295.03-20.12 294.1-22.66 293.17-25.2 293.17-28.13L293.17-28.13Q293.17-30.47 293.83-32.57 294.49-34.67 295.82-36.43 297.15-38.18 299.02-39.47 300.89-40.75 303.46-41.47 306.04-42.19 309.04-42.19L309.04-42.19Q313.75-42.19 317.85-40.76 321.96-39.33 324.69-36.77L324.69-36.77 323.27-35.72Q320.78-37.96 317.05-39.2 313.31-40.43 309.04-40.43L309.04-40.43Q305.7-40.43 303-39.47 300.3-38.5 298.55-36.82 296.81-35.13 295.87-32.91 294.93-30.69 294.93-28.13L294.93-28.13Q294.93-24.68 296.32-21.92 297.71-19.17 300.57-17.49 303.42-15.82 307.33-15.82ZM336.85-40.43L336.85 0 335.09 0 335.09-40.43 336.85-40.43ZM333.33-40.43L333.33 0 331.57 0 331.57-40.43 333.33-40.43ZM329.81-40.43L329.81 0 328.06 0 328.06-40.43 329.81-40.43ZM340.36-15.82L340.36-8.79 359.06-8.79 359.06-7.03 340.36-7.03 340.36-5.27 359.06-5.27 359.06-3.52 340.36-3.52 340.36-1.76 359.06-1.76 359.06 0 338.6 0 338.6-40.43 359.06-40.43 359.06-38.67 340.36-38.67 340.36-36.91 359.06-36.91 359.06-35.16 340.36-35.16 340.36-33.4 359.06-33.4 359.06-31.64 340.36-31.64 340.36-24.61 349.96-24.61 349.96-22.85 340.36-22.85 340.36-21.09 349.96-21.09 349.96-19.34 340.36-19.34 340.36-17.58 349.96-17.58 349.96-15.82 340.36-15.82Z" opacity="1" transform="matrix(1,0,0,1,0,0)" fill="black" class="wordmark-text-0" id="SvgjsPath1553"></path></svg></g></svg></g></svg></g></svg></g><g transform="matrix(1,0,0,1,130.46688138304765,0)"><svg viewBox="0 0 55.48223723390468 53.856752760862136" height="53.856752760862136" width="55.48223723390468"><g><svg xmlns="http://www.w3.org/2000/svg" xmlns:xlink="http://www.w3.org/1999/xlink" version="1.1" x="0" y="0" viewBox="16.081 16.646 68.914 66.895" enable-background="new 0 0 100 100" xml:space="preserve" height="53.856752760862136" width="55.48223723390468" class="icon-icon-0" data-fill-palette-color="accent" id="SvgjsSvg1552"><polygon points="67.876,31.521 67.876,36.521 79.995,36.521 79.995,78.541 21.081,78.541 21.081,36.521 52.546,36.521   40.454,47.727 43.853,51.395 62.601,34.019 43.854,16.646 40.456,20.313 52.55,31.521 16.081,31.521 16.081,83.541 84.995,83.541   84.995,31.521 " fill="white"></polygon></svg></g></svg></g><g></g></svg></g></svg></g><g><path d="M0 247.2v-247.2h395.52v247.2zM392.006 243.686v-240.172h-388.492v240.172z" fill="black" fill-rule="nonzero" stroke="none" stroke-width="1" stroke-linecap="butt" stroke-linejoin="miter" stroke-miterlimit="10" stroke-dasharray="" stroke-dashoffset="0" font-family="none" font-weight="none" font-size="none" text-anchor="none" style="mix-blend-mode: normal"></path></g></svg></g><defs><mask></mask></defs></svg><rect width="395.52" height="247.2" fill="black" stroke="none" visibility="hidden"></rect></g></mask><linearGradient x1="0.054" x2="0.941" y1="0.5" y2="0.5" id="b1d25fc4-08f2-4137-b31a-2a0309d1be16"><stop stop-color="#0f3054" offset="0"></stop><stop stop-color="#3b8dcb" offset="0.498"></stop><stop stop-color="#0f3054" offset="1"></stop></linearGradient><rect width="395.52" height="247.2" fill="url(#b1d25fc4-08f2-4137-b31a-2a0309d1be16)" mask="url(#4a832ae3-812a-4a76-96d8-2f3e4517f6dc)" data-fill-palette-color="accent"></rect><mask id="e2408b21-fefd-4ab6-84a9-dffa8aabdcd8"><g id="SvgjsG1566"><svg viewBox="0 0 395.52 247.2" height="247.2" width="395.52"><g><svg></svg></g><g><svg viewBox="0 0 395.52 247.2" height="247.2" width="395.52"><g transform="matrix(1,0,0,1,39.55199999999999,72.58658761174135)"><svg viewBox="0 0 316.416 102.02682477651729" height="102.02682477651729" width="316.416"><g><svg viewBox="0 0 316.416 102.02682477651729" height="102.02682477651729" width="316.416"><g transform="matrix(1,0,0,1,0,63.05667082509751)"><svg viewBox="0 0 316.416 38.970153951419775" height="38.970153951419775" width="316.416"><g id="SvgjsG1565"><svg viewBox="0 0 316.416 38.970153951419775" height="38.970153951419775" width="316.416" id="SvgjsSvg1564"><g><svg viewBox="0 0 316.416 38.970153951419775" height="38.970153951419775" width="316.416"><g transform="matrix(1,0,0,1,0,0)"><svg width="316.416" viewBox="2.27 -42.19 356.79 43.949999999999996" height="38.970153951419775" data-palette-color="#001f3f"><path d="M11.06-40.43L11.06 0 9.3 0 9.3-40.43 11.06-40.43ZM7.54-40.43L7.54 0 5.79 0 5.79-40.43 7.54-40.43ZM4.03-40.43L4.03 0 2.27 0 2.27-40.43 4.03-40.43ZM14.58-15.82L14.58-8.79 33.28-8.79 33.28-7.03 14.58-7.03 14.58-5.27 33.28-5.27 33.28-3.52 14.58-3.52 14.58-1.76 33.28-1.76 33.28 0 12.82 0 12.82-40.43 33.28-40.43 33.28-38.67 14.58-38.67 14.58-36.91 33.28-36.91 33.28-35.16 14.58-35.16 14.58-33.4 33.28-33.4 33.28-31.64 14.58-31.64 14.58-24.61 24.17-24.61 24.17-22.85 14.58-22.85 14.58-21.09 24.17-21.09 24.17-19.34 14.58-19.34 14.58-17.58 24.17-17.58 24.17-15.82 14.58-15.82ZM68.11-26.61L68.11-26.61 66.67-25.66Q65.35-27.61 63.24-28.75 61.13-29.88 58.66-29.88L58.66-29.88Q54.66-29.88 51.83-27.05 49-24.22 49-20.21 49-16.21 51.83-13.38 54.66-10.55 58.66-10.55L58.66-10.55Q61.13-10.55 63.24-11.69 65.35-12.84 66.67-14.79L66.67-14.79 68.09-13.77Q66.53-11.47 64.04-10.13 61.55-8.79 58.66-8.79L58.66-8.79Q56.35-8.79 54.23-9.69 52.12-10.6 50.58-12.13 49.05-13.67 48.14-15.78 47.24-17.9 47.24-20.21 47.24-22.53 48.14-24.65 49.05-26.76 50.58-28.3 52.12-29.83 54.23-30.74 56.35-31.64 58.66-31.64L58.66-31.64Q61.57-31.64 64.06-30.29 66.55-28.93 68.11-26.61ZM71.02-28.61L71.02-28.61 69.55-27.66Q67.75-30.3 64.88-31.85 62.01-33.4 58.66-33.4L58.66-33.4Q55.08-33.4 52.05-31.63 49.02-29.86 47.25-26.83 45.48-23.8 45.48-20.21 45.48-16.63 47.25-13.6 49.02-10.57 52.05-8.8 55.08-7.03 58.66-7.03L58.66-7.03Q62.01-7.03 64.89-8.59 67.77-10.16 69.58-12.82L69.58-12.82 71.02-11.82Q68.97-8.79 65.71-7.03 62.45-5.27 58.66-5.27L58.66-5.27Q54.61-5.27 51.17-7.28 47.73-9.28 45.73-12.72 43.72-16.16 43.72-20.21 43.72-24.27 45.73-27.71 47.73-31.15 51.17-33.15 54.61-35.16 58.66-35.16L58.66-35.16Q62.45-35.16 65.71-33.4 68.97-31.64 71.02-28.61ZM73.95-30.57L73.95-30.57 72.48-29.61Q70.19-32.98 66.54-34.95 62.89-36.91 58.66-36.91L58.66-36.91Q55.27-36.91 52.17-35.6 49.07-34.28 46.84-32.04 44.6-29.81 43.28-26.71 41.97-23.61 41.97-20.21 41.97-16.82 43.28-13.72 44.6-10.62 46.84-8.39 49.07-6.15 52.17-4.83 55.27-3.52 58.66-3.52L58.66-3.52Q62.91-3.52 66.55-5.49 70.19-7.47 72.48-10.84L72.48-10.84 73.9-9.79Q71.36-6.08 67.34-3.92 63.33-1.76 58.66-1.76L58.66-1.76Q53.66-1.76 49.41-4.24 45.16-6.71 42.69-10.96 40.21-15.21 40.21-20.21 40.21-25.22 42.69-29.47 45.16-33.72 49.41-36.19 53.66-38.67 58.66-38.67L58.66-38.67Q63.35-38.67 67.38-36.49 71.41-34.3 73.95-30.57ZM76.83-32.57L76.83-32.57 75.36-31.62Q72.58-35.69 68.17-38.06 63.77-40.43 58.66-40.43L58.66-40.43Q54.56-40.43 50.82-38.83 47.07-37.23 44.36-34.52 41.65-31.81 40.05-28.06 38.45-24.32 38.45-20.21 38.45-16.11 40.05-12.37 41.65-8.62 44.36-5.91 47.07-3.2 50.82-1.6 54.56 0 58.66 0L58.66 0Q63.77 0 68.19-2.39 72.6-4.79 75.39-8.86L75.39-8.86 76.8-7.79Q73.78-3.39 68.99-0.82 64.21 1.76 58.66 1.76L58.66 1.76Q54.2 1.76 50.13 0.01 46.07-1.73 43.12-4.68 40.18-7.62 38.44-11.68 36.69-15.75 36.69-20.21 36.69-24.68 38.44-28.75 40.18-32.81 43.12-35.75 46.07-38.7 50.13-40.44 54.2-42.19 58.66-42.19L58.66-42.19Q64.23-42.19 69.02-39.6 73.8-37.01 76.83-32.57ZM118.87 0L118.87-40.43 120.62-40.43 120.62 0 118.87 0ZM80.2 0L80.2-40.43 81.95-40.43 81.95 0 80.2 0ZM115.35 0L115.35-40.43 117.11-40.43 117.11 0 115.35 0ZM111.84 0L111.84-40.43 113.59-40.43 113.59 0 111.84 0ZM108.32-24.63L108.32-40.43 110.08-40.43 110.08 0 108.32 0 108.32-15.84 92.5-15.84 92.5 0 90.74 0 90.74-40.43 92.5-40.43 92.5-24.63 108.32-24.63ZM87.23 0L87.23-40.43 88.98-40.43 88.98 0 87.23 0ZM83.71 0L83.71-40.43 85.47-40.43 85.47 0 83.71 0ZM92.5-17.6L108.32-17.6 108.32-19.36 92.5-19.36 92.5-17.6ZM92.5-21.12L108.32-21.12 108.32-22.88 92.5-22.88 92.5-21.12ZM139.49-27.05Q136.66-24.22 136.66-20.21 136.66-16.21 139.49-13.38 142.33-10.55 146.33-10.55 150.33-10.55 153.17-13.38 156-16.21 156-20.21 156-24.22 153.17-27.05 150.33-29.88 146.33-29.88 142.33-29.88 139.49-27.05ZM135.81-15.78Q134.9-17.9 134.9-20.21 134.9-22.53 135.81-24.65 136.71-26.76 138.25-28.3 139.79-29.83 141.9-30.74 144.01-31.64 146.33-31.64 148.65-31.64 150.76-30.74 152.87-29.83 154.41-28.3 155.95-26.76 156.85-24.65 157.76-22.53 157.76-20.21 157.76-17.9 156.85-15.78 155.95-13.67 154.41-12.13 152.87-10.6 150.76-9.69 148.65-8.79 146.33-8.79 144.01-8.79 141.9-9.69 139.79-10.6 138.25-12.13 136.71-13.67 135.81-15.78ZM134.92-26.83Q133.15-23.8 133.15-20.21 133.15-16.63 134.92-13.6 136.69-10.57 139.71-8.8 142.74-7.03 146.33-7.03 149.92-7.03 152.95-8.8 155.97-10.57 157.74-13.6 159.51-16.63 159.51-20.21 159.51-23.8 157.74-26.83 155.97-29.86 152.95-31.63 149.92-33.4 146.33-33.4 142.74-33.4 139.71-31.63 136.69-29.86 134.92-26.83ZM133.39-12.72Q131.39-16.16 131.39-20.21 131.39-24.27 133.39-27.71 135.39-31.15 138.84-33.15 142.28-35.16 146.33-35.16 150.38-35.16 153.83-33.15 157.27-31.15 159.27-27.71 161.27-24.27 161.27-20.21 161.27-16.16 159.27-12.72 157.27-9.28 153.83-7.28 150.38-5.27 146.33-5.27 142.28-5.27 138.84-7.28 135.39-9.28 133.39-12.72ZM130.95-26.71Q129.63-23.61 129.63-20.21 129.63-16.82 130.95-13.72 132.27-10.62 134.5-8.39 136.74-6.15 139.84-4.83 142.94-3.52 146.33-3.52 149.72-3.52 152.82-4.83 155.93-6.15 158.16-8.39 160.39-10.62 161.71-13.72 163.03-16.82 163.03-20.21 163.03-23.61 161.71-26.71 160.39-29.81 158.16-32.04 155.93-34.28 152.82-35.6 149.72-36.91 146.33-36.91 142.94-36.91 139.84-35.6 136.74-34.28 134.5-32.04 132.27-29.81 130.95-26.71ZM130.35-10.96Q127.87-15.21 127.87-20.21 127.87-25.22 130.35-29.47 132.83-33.72 137.08-36.19 141.33-38.67 146.33-38.67 151.34-38.67 155.58-36.19 159.83-33.72 162.31-29.47 164.79-25.22 164.79-20.21 164.79-15.21 162.31-10.96 159.83-6.71 155.58-4.24 151.34-1.76 146.33-1.76 141.33-1.76 137.08-4.24 132.83-6.71 130.35-10.96ZM127.71-28.06Q126.12-24.32 126.12-20.21 126.12-16.11 127.71-12.37 129.31-8.62 132.02-5.91 134.73-3.2 138.48-1.6 142.23 0 146.33 0 150.43 0 154.18-1.6 157.93-3.2 160.64-5.91 163.35-8.62 164.95-12.37 166.55-16.11 166.55-20.21 166.55-24.32 164.95-28.06 163.35-31.81 160.64-34.52 157.93-37.23 154.18-38.83 150.43-40.43 146.33-40.43 142.23-40.43 138.48-38.83 134.73-37.23 132.02-34.52 129.31-31.81 127.71-28.06ZM126.1-11.68Q124.36-15.75 124.36-20.21 124.36-24.68 126.1-28.75 127.85-32.81 130.79-35.75 133.73-38.7 137.8-40.44 141.86-42.19 146.33-42.19 150.8-42.19 154.86-40.44 158.93-38.7 161.87-35.75 164.81-32.81 166.56-28.75 168.3-24.68 168.3-20.21 168.3-15.75 166.56-11.68 164.81-7.62 161.87-4.68 158.93-1.73 154.86 0.01 150.8 1.76 146.33 1.76 141.86 1.76 137.8 0.01 133.73-1.73 130.79-4.68 127.85-7.62 126.1-11.68ZM184.02 0L168.03-40.43 169.94-40.43 184.98-2.37 200.01-40.43 201.89-40.43 185.93 0 184.02 0ZM173.7-40.43L186.2-8.79 185.2-6.54 171.82-40.43 173.7-40.43ZM177.5-40.43L188.08-13.6 187.15-11.18 175.6-40.43 177.5-40.43ZM181.26-40.43L189.93-18.48 189-16.02 179.38-40.43 181.26-40.43ZM195.38 0L211.34-40.43 213.25-40.43 197.26 0 195.38 0ZM191.59 0L207.58-40.43 209.46-40.43 193.47 0 191.59 0ZM187.81 0L203.77-40.43 205.68-40.43 189.69 0 187.81 0ZM225.23-40.43L225.23 0 223.47 0 223.47-40.43 225.23-40.43ZM221.72-40.43L221.72 0 219.96 0 219.96-40.43 221.72-40.43ZM218.2-40.43L218.2 0 216.44 0 216.44-40.43 218.2-40.43ZM228.75-15.82L228.75-8.79 247.45-8.79 247.45-7.03 228.75-7.03 228.75-5.27 247.45-5.27 247.45-3.52 228.75-3.52 228.75-1.76 247.45-1.76 247.45 0 226.99 0 226.99-40.43 247.45-40.43 247.45-38.67 228.75-38.67 228.75-36.91 247.45-36.91 247.45-35.16 228.75-35.16 228.75-33.4 247.45-33.4 247.45-31.64 228.75-31.64 228.75-24.61 238.34-24.61 238.34-22.85 228.75-22.85 228.75-21.09 238.34-21.09 238.34-19.34 228.75-19.34 228.75-17.58 238.34-17.58 238.34-15.82 228.75-15.82ZM265.05-18.36L265.05-20.12 275.64-20.12Q278.06-20.12 279.73-21.68 281.41-23.24 281.41-26.12L281.41-26.12Q281.41-28.25 279.65-29.94 277.89-31.64 275.64-31.64L275.64-31.64 260.56-31.64 260.56 0 258.8 0 258.8-33.4 275.64-33.4Q278.62-33.4 280.89-31.19 283.16-28.98 283.16-26.12L283.16-26.12Q283.16-22.61 280.97-20.48 278.77-18.36 275.64-18.36L275.64-18.36 265.05-18.36ZM265.05-14.84L265.05-16.6 275.64-16.6Q279.45-16.6 282.19-19.27 284.92-21.95 284.92-26.12L284.92-26.12Q284.92-29.71 282.13-32.43 279.33-35.16 275.64-35.16L275.64-35.16 257.04-35.16 257.04 0 255.28 0 255.28-36.91 275.64-36.91Q278.55-36.91 281.1-35.42 283.65-33.94 285.17-31.43 286.68-28.93 286.68-26.12L286.68-26.12Q286.68-21.31 283.42-18.08 280.16-14.84 275.64-14.84L275.64-14.84 265.05-14.84ZM265.05-11.33L265.05-13.09 275.64-13.09Q279.06-13.09 281.99-14.77 284.92-16.46 286.68-19.47 288.44-22.49 288.44-26.12L288.44-26.12Q288.44-29.42 286.69-32.31 284.95-35.21 281.99-36.94 279.04-38.67 275.64-38.67L275.64-38.67 253.53-38.67 253.53 0 251.77 0 251.77-40.43 275.64-40.43Q279.48-40.43 282.85-38.46 286.22-36.5 288.21-33.19 290.19-29.88 290.19-26.12L290.19-26.12Q290.19-21.78 288.33-18.48 286.46-15.19 283.26-13.33L283.26-13.33 287.8 0 285.95 0 281.6-12.5Q280.62-12.11 280.11-11.96L280.11-11.96 284.19 0 282.33 0 278.35-11.55Q278.13-11.5 276.79-11.38L276.79-11.38 280.58 0 278.72 0 274.99-11.33 273.4-11.33 276.96 0 275.11 0 271.52-11.33 265.05-11.33ZM264.07-28.13L264.07 0 262.31 0 262.31-29.88 275.64-29.88Q277.28-29.88 278.46-28.77 279.65-27.66 279.65-26.12L279.65-26.12Q279.65-21.88 275.64-21.88L275.64-21.88 265.05-21.88 265.05-23.63 275.64-23.63Q276.69-23.63 277.29-24.18 277.89-24.73 277.89-26.12L277.89-26.12Q277.89-26.98 277.24-27.55 276.6-28.13 275.64-28.13L275.64-28.13 264.07-28.13ZM310.29-24.61L310.29-24.61 307.33-24.61Q305.45-24.61 304.62-25.57 303.79-26.54 303.79-28.13L303.79-28.13Q303.79-31.64 309.04-31.64L309.04-31.64Q313.97-31.64 316.46-30.18L316.46-30.18 315.05-29.1Q313.34-29.88 309.04-29.88L309.04-29.88Q306.94-29.88 306.22-29.42 305.5-28.96 305.5-28.13 305.5-27.29 305.89-26.83 306.28-26.37 307.33-26.37L307.33-26.37 310.36-26.37Q313.65-26.37 316.3-25.24 318.95-24.12 320.66-22.18 322.37-20.24 323.27-17.71 324.18-15.19 324.18-12.3L324.18-12.3Q324.18-9.96 323.52-7.86 322.86-5.76 321.53-4 320.2-2.25 318.33-0.96 316.46 0.32 313.89 1.04 311.31 1.76 308.31 1.76L308.31 1.76Q303.6 1.76 299.48 0.33 295.37-1.1 292.63-3.66L292.63-3.66 294.05-4.71Q296.54-2.47 300.29-1.23 304.04 0 308.31 0L308.31 0Q311.65 0 314.35-0.96 317.05-1.93 318.79-3.61 320.54-5.3 321.48-7.52 322.42-9.74 322.42-12.3L322.42-12.3Q322.42-15.7 321.05-18.44 319.68-21.19 316.89-22.9 314.09-24.61 310.29-24.61ZM307.33-22.85L307.33-22.85 310.11-22.85Q315.07-22.85 317.87-19.82 320.66-16.8 320.66-12.3L320.66-12.3Q320.66-7.74 317.41-4.75 314.17-1.76 308.31-1.76L308.31-1.76Q304.4-1.76 301.01-2.83 297.61-3.91 295.37-5.86L295.37-5.86 296.74-6.96Q298.74-5.32 301.78-4.42 304.82-3.52 308.31-3.52L308.31-3.52Q313.46-3.52 316.18-5.98 318.9-8.45 318.9-12.3L318.9-12.3Q318.9-16.11 316.62-18.6 314.34-21.09 310.09-21.09L310.09-21.09 307.33-21.09Q303.77-21.09 301.98-23.05 300.2-25 300.2-28.13 300.2-31.25 302.41-33.2 304.62-35.16 309.04-35.16L309.04-35.16Q312.14-35.16 314.8-34.44 317.46-33.72 319.2-32.37L319.2-32.37 317.8-31.3Q314.75-33.4 309.04-33.4L309.04-33.4Q305.35-33.4 303.66-31.95 301.96-30.49 301.96-28.13L301.96-28.13Q301.96-25.73 303.22-24.29 304.47-22.85 307.33-22.85ZM307.33-19.34L307.33-19.34 310.02-19.34Q313.58-19.34 315.36-17.36 317.15-15.38 317.15-12.3L317.15-12.3Q317.15-9.18 314.94-7.23 312.73-5.27 308.31-5.27L308.31-5.27Q305.21-5.27 302.53-5.99 299.86-6.71 298.13-8.06L298.13-8.06 299.52-9.13Q302.57-7.03 308.31-7.03L308.31-7.03Q311.99-7.03 313.69-8.48 315.39-9.94 315.39-12.3 315.39-14.67 314.12-16.13 312.85-17.58 309.99-17.58L309.99-17.58 307.33-17.58Q302.33-17.58 299.51-20.57 296.69-23.56 296.69-28.13 296.69-32.69 299.93-35.68 303.18-38.67 309.04-38.67L309.04-38.67Q312.95-38.67 316.33-37.6 319.71-36.52 321.96-34.57L321.96-34.57 320.59-33.47Q318.59-35.11 315.56-36.01 312.53-36.91 309.04-36.91L309.04-36.91Q303.89-36.91 301.17-34.45 298.44-31.98 298.44-28.13L298.44-28.13Q298.44-24.29 300.74-21.81 303.03-19.34 307.33-19.34ZM307.33-15.82L307.33-15.82 310.02-15.82Q311.9-15.82 312.73-14.84 313.56-13.87 313.56-12.3L313.56-12.3Q313.56-8.79 308.31-8.79L308.31-8.79Q303.35-8.79 300.86-10.25L300.86-10.25 302.28-11.33Q303.99-10.55 308.31-10.55L308.31-10.55Q310.41-10.55 311.13-11.01 311.85-11.47 311.85-12.3L311.85-12.3Q311.85-13.11 311.44-13.59 311.04-14.06 309.97-14.06L309.97-14.06 307.33-14.06Q303.96-14.06 301.24-15.16 298.52-16.26 296.77-18.19 295.03-20.12 294.1-22.66 293.17-25.2 293.17-28.13L293.17-28.13Q293.17-30.47 293.83-32.57 294.49-34.67 295.82-36.43 297.15-38.18 299.02-39.47 300.89-40.75 303.46-41.47 306.04-42.19 309.04-42.19L309.04-42.19Q313.75-42.19 317.85-40.76 321.96-39.33 324.69-36.77L324.69-36.77 323.27-35.72Q320.78-37.96 317.05-39.2 313.31-40.43 309.04-40.43L309.04-40.43Q305.7-40.43 303-39.47 300.3-38.5 298.55-36.82 296.81-35.13 295.87-32.91 294.93-30.69 294.93-28.13L294.93-28.13Q294.93-24.68 296.32-21.92 297.71-19.17 300.57-17.49 303.42-15.82 307.33-15.82ZM336.85-40.43L336.85 0 335.09 0 335.09-40.43 336.85-40.43ZM333.33-40.43L333.33 0 331.57 0 331.57-40.43 333.33-40.43ZM329.81-40.43L329.81 0 328.06 0 328.06-40.43 329.81-40.43ZM340.36-15.82L340.36-8.79 359.06-8.79 359.06-7.03 340.36-7.03 340.36-5.27 359.06-5.27 359.06-3.52 340.36-3.52 340.36-1.76 359.06-1.76 359.06 0 338.6 0 338.6-40.43 359.06-40.43 359.06-38.67 340.36-38.67 340.36-36.91 359.06-36.91 359.06-35.16 340.36-35.16 340.36-33.4 359.06-33.4 359.06-31.64 340.36-31.64 340.36-24.61 349.96-24.61 349.96-22.85 340.36-22.85 340.36-21.09 349.96-21.09 349.96-19.34 340.36-19.34 340.36-17.58 349.96-17.58 349.96-15.82 340.36-15.82Z" opacity="1" transform="matrix(1,0,0,1,0,0)" fill="black" class="wordmark-text-0" id="SvgjsPath1563"></path></svg></g></svg></g></svg></g></svg></g><g transform="matrix(1,0,0,1,130.46688138304765,0)"><svg viewBox="0 0 55.48223723390468 53.856752760862136" height="53.856752760862136" width="55.48223723390468"><g><svg xmlns="http://www.w3.org/2000/svg" xmlns:xlink="http://www.w3.org/1999/xlink" version="1.1" x="0" y="0" viewBox="16.081 16.646 68.914 66.895" enable-background="new 0 0 100 100" xml:space="preserve" height="53.856752760862136" width="55.48223723390468" class="icon-icon-0" data-fill-palette-color="accent" id="SvgjsSvg1562"></svg></g></svg></g><g></g></svg></g></svg></g><g><path d="M0 247.2v-247.2h395.52v247.2zM392.006 243.686v-240.172h-388.492v240.172z" fill="white" fill-rule="nonzero" stroke="none" stroke-width="1" stroke-linecap="butt" stroke-linejoin="miter" stroke-miterlimit="10" stroke-dasharray="" stroke-dashoffset="0" font-family="none" font-weight="none" font-size="none" text-anchor="none" style="mix-blend-mode: normal"></path></g></svg></g><defs><mask></mask></defs><mask><g id="SvgjsG1561"><svg viewBox="0 0 395.52 247.2" height="247.2" width="395.52"><g><svg></svg></g><g><svg viewBox="0 0 395.52 247.2" height="247.2" width="395.52"><g transform="matrix(1,0,0,1,39.55199999999999,72.58658761174135)"><svg viewBox="0 0 316.416 102.02682477651729" height="102.02682477651729" width="316.416"><g><svg viewBox="0 0 316.416 102.02682477651729" height="102.02682477651729" width="316.416"><g transform="matrix(1,0,0,1,0,63.05667082509751)"><svg viewBox="0 0 316.416 38.970153951419775" height="38.970153951419775" width="316.416"><g id="SvgjsG1560"><svg viewBox="0 0 316.416 38.970153951419775" height="38.970153951419775" width="316.416" id="SvgjsSvg1559"><g><svg viewBox="0 0 316.416 38.970153951419775" height="38.970153951419775" width="316.416"><g transform="matrix(1,0,0,1,0,0)"><svg width="316.416" viewBox="2.27 -42.19 356.79 43.949999999999996" height="38.970153951419775" data-palette-color="#001f3f"><path d="M11.06-40.43L11.06 0 9.3 0 9.3-40.43 11.06-40.43ZM7.54-40.43L7.54 0 5.79 0 5.79-40.43 7.54-40.43ZM4.03-40.43L4.03 0 2.27 0 2.27-40.43 4.03-40.43ZM14.58-15.82L14.58-8.79 33.28-8.79 33.28-7.03 14.58-7.03 14.58-5.27 33.28-5.27 33.28-3.52 14.58-3.52 14.58-1.76 33.28-1.76 33.28 0 12.82 0 12.82-40.43 33.28-40.43 33.28-38.67 14.58-38.67 14.58-36.91 33.28-36.91 33.28-35.16 14.58-35.16 14.58-33.4 33.28-33.4 33.28-31.64 14.58-31.64 14.58-24.61 24.17-24.61 24.17-22.85 14.58-22.85 14.58-21.09 24.17-21.09 24.17-19.34 14.58-19.34 14.58-17.58 24.17-17.58 24.17-15.82 14.58-15.82ZM68.11-26.61L68.11-26.61 66.67-25.66Q65.35-27.61 63.24-28.75 61.13-29.88 58.66-29.88L58.66-29.88Q54.66-29.88 51.83-27.05 49-24.22 49-20.21 49-16.21 51.83-13.38 54.66-10.55 58.66-10.55L58.66-10.55Q61.13-10.55 63.24-11.69 65.35-12.84 66.67-14.79L66.67-14.79 68.09-13.77Q66.53-11.47 64.04-10.13 61.55-8.79 58.66-8.79L58.66-8.79Q56.35-8.79 54.23-9.69 52.12-10.6 50.58-12.13 49.05-13.67 48.14-15.78 47.24-17.9 47.24-20.21 47.24-22.53 48.14-24.65 49.05-26.76 50.58-28.3 52.12-29.83 54.23-30.74 56.35-31.64 58.66-31.64L58.66-31.64Q61.57-31.64 64.06-30.29 66.55-28.93 68.11-26.61ZM71.02-28.61L71.02-28.61 69.55-27.66Q67.75-30.3 64.88-31.85 62.01-33.4 58.66-33.4L58.66-33.4Q55.08-33.4 52.05-31.63 49.02-29.86 47.25-26.83 45.48-23.8 45.48-20.21 45.48-16.63 47.25-13.6 49.02-10.57 52.05-8.8 55.08-7.03 58.66-7.03L58.66-7.03Q62.01-7.03 64.89-8.59 67.77-10.16 69.58-12.82L69.58-12.82 71.02-11.82Q68.97-8.79 65.71-7.03 62.45-5.27 58.66-5.27L58.66-5.27Q54.61-5.27 51.17-7.28 47.73-9.28 45.73-12.72 43.72-16.16 43.72-20.21 43.72-24.27 45.73-27.71 47.73-31.15 51.17-33.15 54.61-35.16 58.66-35.16L58.66-35.16Q62.45-35.16 65.71-33.4 68.97-31.64 71.02-28.61ZM73.95-30.57L73.95-30.57 72.48-29.61Q70.19-32.98 66.54-34.95 62.89-36.91 58.66-36.91L58.66-36.91Q55.27-36.91 52.17-35.6 49.07-34.28 46.84-32.04 44.6-29.81 43.28-26.71 41.97-23.61 41.97-20.21 41.97-16.82 43.28-13.72 44.6-10.62 46.84-8.39 49.07-6.15 52.17-4.83 55.27-3.52 58.66-3.52L58.66-3.52Q62.91-3.52 66.55-5.49 70.19-7.47 72.48-10.84L72.48-10.84 73.9-9.79Q71.36-6.08 67.34-3.92 63.33-1.76 58.66-1.76L58.66-1.76Q53.66-1.76 49.41-4.24 45.16-6.71 42.69-10.96 40.21-15.21 40.21-20.21 40.21-25.22 42.69-29.47 45.16-33.72 49.41-36.19 53.66-38.67 58.66-38.67L58.66-38.67Q63.35-38.67 67.38-36.49 71.41-34.3 73.95-30.57ZM76.83-32.57L76.83-32.57 75.36-31.62Q72.58-35.69 68.17-38.06 63.77-40.43 58.66-40.43L58.66-40.43Q54.56-40.43 50.82-38.83 47.07-37.23 44.36-34.52 41.65-31.81 40.05-28.06 38.45-24.32 38.45-20.21 38.45-16.11 40.05-12.37 41.65-8.62 44.36-5.91 47.07-3.2 50.82-1.6 54.56 0 58.66 0L58.66 0Q63.77 0 68.19-2.39 72.6-4.79 75.39-8.86L75.39-8.86 76.8-7.79Q73.78-3.39 68.99-0.82 64.21 1.76 58.66 1.76L58.66 1.76Q54.2 1.76 50.13 0.01 46.07-1.73 43.12-4.68 40.18-7.62 38.44-11.68 36.69-15.75 36.69-20.21 36.69-24.68 38.44-28.75 40.18-32.81 43.12-35.75 46.07-38.7 50.13-40.44 54.2-42.19 58.66-42.19L58.66-42.19Q64.23-42.19 69.02-39.6 73.8-37.01 76.83-32.57ZM118.87 0L118.87-40.43 120.62-40.43 120.62 0 118.87 0ZM80.2 0L80.2-40.43 81.95-40.43 81.95 0 80.2 0ZM115.35 0L115.35-40.43 117.11-40.43 117.11 0 115.35 0ZM111.84 0L111.84-40.43 113.59-40.43 113.59 0 111.84 0ZM108.32-24.63L108.32-40.43 110.08-40.43 110.08 0 108.32 0 108.32-15.84 92.5-15.84 92.5 0 90.74 0 90.74-40.43 92.5-40.43 92.5-24.63 108.32-24.63ZM87.23 0L87.23-40.43 88.98-40.43 88.98 0 87.23 0ZM83.71 0L83.71-40.43 85.47-40.43 85.47 0 83.71 0ZM92.5-17.6L108.32-17.6 108.32-19.36 92.5-19.36 92.5-17.6ZM92.5-21.12L108.32-21.12 108.32-22.88 92.5-22.88 92.5-21.12ZM139.49-27.05Q136.66-24.22 136.66-20.21 136.66-16.21 139.49-13.38 142.33-10.55 146.33-10.55 150.33-10.55 153.17-13.38 156-16.21 156-20.21 156-24.22 153.17-27.05 150.33-29.88 146.33-29.88 142.33-29.88 139.49-27.05ZM135.81-15.78Q134.9-17.9 134.9-20.21 134.9-22.53 135.81-24.65 136.71-26.76 138.25-28.3 139.79-29.83 141.9-30.74 144.01-31.64 146.33-31.64 148.65-31.64 150.76-30.74 152.87-29.83 154.41-28.3 155.95-26.76 156.85-24.65 157.76-22.53 157.76-20.21 157.76-17.9 156.85-15.78 155.95-13.67 154.41-12.13 152.87-10.6 150.76-9.69 148.65-8.79 146.33-8.79 144.01-8.79 141.9-9.69 139.79-10.6 138.25-12.13 136.71-13.67 135.81-15.78ZM134.92-26.83Q133.15-23.8 133.15-20.21 133.15-16.63 134.92-13.6 136.69-10.57 139.71-8.8 142.74-7.03 146.33-7.03 149.92-7.03 152.95-8.8 155.97-10.57 157.74-13.6 159.51-16.63 159.51-20.21 159.51-23.8 157.74-26.83 155.97-29.86 152.95-31.63 149.92-33.4 146.33-33.4 142.74-33.4 139.71-31.63 136.69-29.86 134.92-26.83ZM133.39-12.72Q131.39-16.16 131.39-20.21 131.39-24.27 133.39-27.71 135.39-31.15 138.84-33.15 142.28-35.16 146.33-35.16 150.38-35.16 153.83-33.15 157.27-31.15 159.27-27.71 161.27-24.27 161.27-20.21 161.27-16.16 159.27-12.72 157.27-9.28 153.83-7.28 150.38-5.27 146.33-5.27 142.28-5.27 138.84-7.28 135.39-9.28 133.39-12.72ZM130.95-26.71Q129.63-23.61 129.63-20.21 129.63-16.82 130.95-13.72 132.27-10.62 134.5-8.39 136.74-6.15 139.84-4.83 142.94-3.52 146.33-3.52 149.72-3.52 152.82-4.83 155.93-6.15 158.16-8.39 160.39-10.62 161.71-13.72 163.03-16.82 163.03-20.21 163.03-23.61 161.71-26.71 160.39-29.81 158.16-32.04 155.93-34.28 152.82-35.6 149.72-36.91 146.33-36.91 142.94-36.91 139.84-35.6 136.74-34.28 134.5-32.04 132.27-29.81 130.95-26.71ZM130.35-10.96Q127.87-15.21 127.87-20.21 127.87-25.22 130.35-29.47 132.83-33.72 137.08-36.19 141.33-38.67 146.33-38.67 151.34-38.67 155.58-36.19 159.83-33.72 162.31-29.47 164.79-25.22 164.79-20.21 164.79-15.21 162.31-10.96 159.83-6.71 155.58-4.24 151.34-1.76 146.33-1.76 141.33-1.76 137.08-4.24 132.83-6.71 130.35-10.96ZM127.71-28.06Q126.12-24.32 126.12-20.21 126.12-16.11 127.71-12.37 129.31-8.62 132.02-5.91 134.73-3.2 138.48-1.6 142.23 0 146.33 0 150.43 0 154.18-1.6 157.93-3.2 160.64-5.91 163.35-8.62 164.95-12.37 166.55-16.11 166.55-20.21 166.55-24.32 164.95-28.06 163.35-31.81 160.64-34.52 157.93-37.23 154.18-38.83 150.43-40.43 146.33-40.43 142.23-40.43 138.48-38.83 134.73-37.23 132.02-34.52 129.31-31.81 127.71-28.06ZM126.1-11.68Q124.36-15.75 124.36-20.21 124.36-24.68 126.1-28.75 127.85-32.81 130.79-35.75 133.73-38.7 137.8-40.44 141.86-42.19 146.33-42.19 150.8-42.19 154.86-40.44 158.93-38.7 161.87-35.75 164.81-32.81 166.56-28.75 168.3-24.68 168.3-20.21 168.3-15.75 166.56-11.68 164.81-7.62 161.87-4.68 158.93-1.73 154.86 0.01 150.8 1.76 146.33 1.76 141.86 1.76 137.8 0.01 133.73-1.73 130.79-4.68 127.85-7.62 126.1-11.68ZM184.02 0L168.03-40.43 169.94-40.43 184.98-2.37 200.01-40.43 201.89-40.43 185.93 0 184.02 0ZM173.7-40.43L186.2-8.79 185.2-6.54 171.82-40.43 173.7-40.43ZM177.5-40.43L188.08-13.6 187.15-11.18 175.6-40.43 177.5-40.43ZM181.26-40.43L189.93-18.48 189-16.02 179.38-40.43 181.26-40.43ZM195.38 0L211.34-40.43 213.25-40.43 197.26 0 195.38 0ZM191.59 0L207.58-40.43 209.46-40.43 193.47 0 191.59 0ZM187.81 0L203.77-40.43 205.68-40.43 189.69 0 187.81 0ZM225.23-40.43L225.23 0 223.47 0 223.47-40.43 225.23-40.43ZM221.72-40.43L221.72 0 219.96 0 219.96-40.43 221.72-40.43ZM218.2-40.43L218.2 0 216.44 0 216.44-40.43 218.2-40.43ZM228.75-15.82L228.75-8.79 247.45-8.79 247.45-7.03 228.75-7.03 228.75-5.27 247.45-5.27 247.45-3.52 228.75-3.52 228.75-1.76 247.45-1.76 247.45 0 226.99 0 226.99-40.43 247.45-40.43 247.45-38.67 228.75-38.67 228.75-36.91 247.45-36.91 247.45-35.16 228.75-35.16 228.75-33.4 247.45-33.4 247.45-31.64 228.75-31.64 228.75-24.61 238.34-24.61 238.34-22.85 228.75-22.85 228.75-21.09 238.34-21.09 238.34-19.34 228.75-19.34 228.75-17.58 238.34-17.58 238.34-15.82 228.75-15.82ZM265.05-18.36L265.05-20.12 275.64-20.12Q278.06-20.12 279.73-21.68 281.41-23.24 281.41-26.12L281.41-26.12Q281.41-28.25 279.65-29.94 277.89-31.64 275.64-31.64L275.64-31.64 260.56-31.64 260.56 0 258.8 0 258.8-33.4 275.64-33.4Q278.62-33.4 280.89-31.19 283.16-28.98 283.16-26.12L283.16-26.12Q283.16-22.61 280.97-20.48 278.77-18.36 275.64-18.36L275.64-18.36 265.05-18.36ZM265.05-14.84L265.05-16.6 275.64-16.6Q279.45-16.6 282.19-19.27 284.92-21.95 284.92-26.12L284.92-26.12Q284.92-29.71 282.13-32.43 279.33-35.16 275.64-35.16L275.64-35.16 257.04-35.16 257.04 0 255.28 0 255.28-36.91 275.64-36.91Q278.55-36.91 281.1-35.42 283.65-33.94 285.17-31.43 286.68-28.93 286.68-26.12L286.68-26.12Q286.68-21.31 283.42-18.08 280.16-14.84 275.64-14.84L275.64-14.84 265.05-14.84ZM265.05-11.33L265.05-13.09 275.64-13.09Q279.06-13.09 281.99-14.77 284.92-16.46 286.68-19.47 288.44-22.49 288.44-26.12L288.44-26.12Q288.44-29.42 286.69-32.31 284.95-35.21 281.99-36.94 279.04-38.67 275.64-38.67L275.64-38.67 253.53-38.67 253.53 0 251.77 0 251.77-40.43 275.64-40.43Q279.48-40.43 282.85-38.46 286.22-36.5 288.21-33.19 290.19-29.88 290.19-26.12L290.19-26.12Q290.19-21.78 288.33-18.48 286.46-15.19 283.26-13.33L283.26-13.33 287.8 0 285.95 0 281.6-12.5Q280.62-12.11 280.11-11.96L280.11-11.96 284.19 0 282.33 0 278.35-11.55Q278.13-11.5 276.79-11.38L276.79-11.38 280.58 0 278.72 0 274.99-11.33 273.4-11.33 276.96 0 275.11 0 271.52-11.33 265.05-11.33ZM264.07-28.13L264.07 0 262.31 0 262.31-29.88 275.64-29.88Q277.28-29.88 278.46-28.77 279.65-27.66 279.65-26.12L279.65-26.12Q279.65-21.88 275.64-21.88L275.64-21.88 265.05-21.88 265.05-23.63 275.64-23.63Q276.69-23.63 277.29-24.18 277.89-24.73 277.89-26.12L277.89-26.12Q277.89-26.98 277.24-27.55 276.6-28.13 275.64-28.13L275.64-28.13 264.07-28.13ZM310.29-24.61L310.29-24.61 307.33-24.61Q305.45-24.61 304.62-25.57 303.79-26.54 303.79-28.13L303.79-28.13Q303.79-31.64 309.04-31.64L309.04-31.64Q313.97-31.64 316.46-30.18L316.46-30.18 315.05-29.1Q313.34-29.88 309.04-29.88L309.04-29.88Q306.94-29.88 306.22-29.42 305.5-28.96 305.5-28.13 305.5-27.29 305.89-26.83 306.28-26.37 307.33-26.37L307.33-26.37 310.36-26.37Q313.65-26.37 316.3-25.24 318.95-24.12 320.66-22.18 322.37-20.24 323.27-17.71 324.18-15.19 324.18-12.3L324.18-12.3Q324.18-9.96 323.52-7.86 322.86-5.76 321.53-4 320.2-2.25 318.33-0.96 316.46 0.32 313.89 1.04 311.31 1.76 308.31 1.76L308.31 1.76Q303.6 1.76 299.48 0.33 295.37-1.1 292.63-3.66L292.63-3.66 294.05-4.71Q296.54-2.47 300.29-1.23 304.04 0 308.31 0L308.31 0Q311.65 0 314.35-0.96 317.05-1.93 318.79-3.61 320.54-5.3 321.48-7.52 322.42-9.74 322.42-12.3L322.42-12.3Q322.42-15.7 321.05-18.44 319.68-21.19 316.89-22.9 314.09-24.61 310.29-24.61ZM307.33-22.85L307.33-22.85 310.11-22.85Q315.07-22.85 317.87-19.82 320.66-16.8 320.66-12.3L320.66-12.3Q320.66-7.74 317.41-4.75 314.17-1.76 308.31-1.76L308.31-1.76Q304.4-1.76 301.01-2.83 297.61-3.91 295.37-5.86L295.37-5.86 296.74-6.96Q298.74-5.32 301.78-4.42 304.82-3.52 308.31-3.52L308.31-3.52Q313.46-3.52 316.18-5.98 318.9-8.45 318.9-12.3L318.9-12.3Q318.9-16.11 316.62-18.6 314.34-21.09 310.09-21.09L310.09-21.09 307.33-21.09Q303.77-21.09 301.98-23.05 300.2-25 300.2-28.13 300.2-31.25 302.41-33.2 304.62-35.16 309.04-35.16L309.04-35.16Q312.14-35.16 314.8-34.44 317.46-33.72 319.2-32.37L319.2-32.37 317.8-31.3Q314.75-33.4 309.04-33.4L309.04-33.4Q305.35-33.4 303.66-31.95 301.96-30.49 301.96-28.13L301.96-28.13Q301.96-25.73 303.22-24.29 304.47-22.85 307.33-22.85ZM307.33-19.34L307.33-19.34 310.02-19.34Q313.58-19.34 315.36-17.36 317.15-15.38 317.15-12.3L317.15-12.3Q317.15-9.18 314.94-7.23 312.73-5.27 308.31-5.27L308.31-5.27Q305.21-5.27 302.53-5.99 299.86-6.71 298.13-8.06L298.13-8.06 299.52-9.13Q302.57-7.03 308.31-7.03L308.31-7.03Q311.99-7.03 313.69-8.48 315.39-9.94 315.39-12.3 315.39-14.67 314.12-16.13 312.85-17.58 309.99-17.58L309.99-17.58 307.33-17.58Q302.33-17.58 299.51-20.57 296.69-23.56 296.69-28.13 296.69-32.69 299.93-35.68 303.18-38.67 309.04-38.67L309.04-38.67Q312.95-38.67 316.33-37.6 319.71-36.52 321.96-34.57L321.96-34.57 320.59-33.47Q318.59-35.11 315.56-36.01 312.53-36.91 309.04-36.91L309.04-36.91Q303.89-36.91 301.17-34.45 298.44-31.98 298.44-28.13L298.44-28.13Q298.44-24.29 300.74-21.81 303.03-19.34 307.33-19.34ZM307.33-15.82L307.33-15.82 310.02-15.82Q311.9-15.82 312.73-14.84 313.56-13.87 313.56-12.3L313.56-12.3Q313.56-8.79 308.31-8.79L308.31-8.79Q303.35-8.79 300.86-10.25L300.86-10.25 302.28-11.33Q303.99-10.55 308.31-10.55L308.31-10.55Q310.41-10.55 311.13-11.01 311.85-11.47 311.85-12.3L311.85-12.3Q311.85-13.11 311.44-13.59 311.04-14.06 309.97-14.06L309.97-14.06 307.33-14.06Q303.96-14.06 301.24-15.16 298.52-16.26 296.77-18.19 295.03-20.12 294.1-22.66 293.17-25.2 293.17-28.13L293.17-28.13Q293.17-30.47 293.83-32.57 294.49-34.67 295.82-36.43 297.15-38.18 299.02-39.47 300.89-40.75 303.46-41.47 306.04-42.19 309.04-42.19L309.04-42.19Q313.75-42.19 317.85-40.76 321.96-39.33 324.69-36.77L324.69-36.77 323.27-35.72Q320.78-37.96 317.05-39.2 313.31-40.43 309.04-40.43L309.04-40.43Q305.7-40.43 303-39.47 300.3-38.5 298.55-36.82 296.81-35.13 295.87-32.91 294.93-30.69 294.93-28.13L294.93-28.13Q294.93-24.68 296.32-21.92 297.71-19.17 300.57-17.49 303.42-15.82 307.33-15.82ZM336.85-40.43L336.85 0 335.09 0 335.09-40.43 336.85-40.43ZM333.33-40.43L333.33 0 331.57 0 331.57-40.43 333.33-40.43ZM329.81-40.43L329.81 0 328.06 0 328.06-40.43 329.81-40.43ZM340.36-15.82L340.36-8.79 359.06-8.79 359.06-7.03 340.36-7.03 340.36-5.27 359.06-5.27 359.06-3.52 340.36-3.52 340.36-1.76 359.06-1.76 359.06 0 338.6 0 338.6-40.43 359.06-40.43 359.06-38.67 340.36-38.67 340.36-36.91 359.06-36.91 359.06-35.16 340.36-35.16 340.36-33.4 359.06-33.4 359.06-31.64 340.36-31.64 340.36-24.61 349.96-24.61 349.96-22.85 340.36-22.85 340.36-21.09 349.96-21.09 349.96-19.34 340.36-19.34 340.36-17.58 349.96-17.58 349.96-15.82 340.36-15.82Z" opacity="1" transform="matrix(1,0,0,1,0,0)" fill="black" class="wordmark-text-0" id="SvgjsPath1558"></path></svg></g></svg></g></svg></g></svg></g><g transform="matrix(1,0,0,1,130.46688138304765,0)"><svg viewBox="0 0 55.48223723390468 53.856752760862136" height="53.856752760862136" width="55.48223723390468"><g><svg xmlns="http://www.w3.org/2000/svg" xmlns:xlink="http://www.w3.org/1999/xlink" version="1.1" x="0" y="0" viewBox="16.081 16.646 68.914 66.895" enable-background="new 0 0 100 100" xml:space="preserve" height="53.856752760862136" width="55.48223723390468" class="icon-icon-0" data-fill-palette-color="accent" id="SvgjsSvg1557"><polygon points="67.876,31.521 67.876,36.521 79.995,36.521 79.995,78.541 21.081,78.541 21.081,36.521 52.546,36.521   40.454,47.727 43.853,51.395 62.601,34.019 43.854,16.646 40.456,20.313 52.55,31.521 16.081,31.521 16.081,83.541 84.995,83.541   84.995,31.521 " fill="black"></polygon></svg></g></svg></g><g></g></svg></g></svg></g><g><path d="M0 247.2v-247.2h395.52v247.2zM392.006 243.686v-240.172h-388.492v240.172z" fill="black" fill-rule="nonzero" stroke="none" stroke-width="1" stroke-linecap="butt" stroke-linejoin="miter" stroke-miterlimit="10" stroke-dasharray="" stroke-dashoffset="0" font-family="none" font-weight="none" font-size="none" text-anchor="none" style="mix-blend-mode: normal"></path></g></svg></g><defs><mask></mask></defs></svg><rect width="395.52" height="247.2" fill="black" stroke="none" visibility="hidden"></rect></g></mask></svg><rect width="395.52" height="247.2" fill="black" stroke="none" visibility="hidden"></rect></g></mask><linearGradient x1="0.054" x2="0.941" y1="0.5" y2="0.5" id="10d83cdf-6c27-4c00-851d-aa1e962f7511"><stop stop-color="#0f3054" offset="0"></stop><stop stop-color="#3b8dcb" offset="0.498"></stop><stop stop-color="#0f3054" offset="1"></stop></linearGradient></svg><rect width="395.52" height="247.2" fill="none" stroke="none" visibility="hidden"></rect></g></svg></g></svg>